<?xml version="1.0" standalone="no"?>
<!DOCTYPE svg PUBLIC "-//W3C//DTD SVG 20010904//EN"
 "http://www.w3.org/TR/2001/REC-SVG-20010904/DTD/svg10.dtd">
<svg version="1.0" xmlns="http://www.w3.org/2000/svg"
 width="504.000000pt" height="504.000000pt" viewBox="0 0 504.000000 504.000000"
 preserveAspectRatio="xMidYMid meet">
<metadata>
Created by potrace 1.11, written by Peter Selinger 2001-2013
</metadata>
<g transform="translate(0.000000,504.000000) scale(0.100000,-0.100000)"
fill="#000000" stroke="none">
<path d="M1178 4196 c-82 -30 -140 -82 -529 -473 -488 -490 -453 -436 -454
-698 0 -271 -113 -129 959 -1203 651 -653 934 -930 966 -947 72 -37 146 -45
400 -45 247 0 328 9 395 42 26 13 358 338 957 936 824 823 920 922 943 974 26
57 26 61 23 251 -3 179 -5 195 -27 242 -36 76 -810 851 -895 897 l-61 33 -250
0 c-221 0 -256 -2 -300 -19 -42 -16 -92 -61 -320 -286 -157 -156 -287 -276
-310 -288 -93 -47 -217 -47 -310 0 -23 12 -152 131 -305 282 -194 192 -278
269 -315 287 -48 23 -59 24 -290 26 -181 2 -249 -1 -277 -11z m449 -528 c84
-84 153 -157 153 -162 0 -16 -293 -306 -309 -306 -21 0 -311 290 -311 310 0
17 290 310 306 310 5 0 77 -69 161 -152z m2105 5 c81 -81 148 -154 148 -162 0
-20 -290 -311 -310 -311 -21 0 -314 294 -308 310 5 17 301 310 312 310 5 0 76
-66 158 -147z m-2625 -525 c89 -89 143 -150 143 -163 0 -27 -278 -305 -305
-305 -27 0 -305 278 -305 305 0 27 278 305 305 305 12 0 74 -54 162 -142z
m1045 -5 c82 -81 148 -155 148 -163 0 -16 -289 -310 -305 -310 -20 0 -305 295
-305 315 0 23 277 305 300 305 8 0 81 -66 162 -147z m1055 5 c91 -90 143 -150
143 -162 0 -21 -285 -316 -305 -316 -20 0 -307 297 -303 314 4 23 289 306 307
306 8 0 79 -64 158 -142z m1050 0 c89 -89 143 -150 143 -163 0 -27 -278 -305
-305 -305 -14 0 -73 53 -168 148 -81 82 -147 152 -147 157 0 19 295 305 314
305 13 0 74 -53 163 -142z m-2100 -1050 c370 -370 673 -680 673 -688 0 -20
-290 -310 -310 -310 -19 0 -1360 1340 -1360 1360 0 19 291 310 310 310 8 0
318 -303 687 -672z m1575 524 c81 -81 148 -154 148 -162 0 -19 -290 -310 -310
-310 -19 0 -310 290 -310 310 0 19 290 310 310 310 8 0 81 -67 162 -148z
m-1050 -9 c82 -81 148 -152 148 -158 0 -16 -294 -305 -310 -305 -19 0 -310
290 -310 310 0 23 281 300 305 300 12 0 76 -56 167 -147z m520 -520 c82 -81
148 -155 148 -163 0 -16 -289 -310 -305 -310 -20 0 -305 295 -305 316 0 23
278 304 301 304 7 0 80 -66 161 -147z"/>
</g>
</svg>
